<?xml version="1.0" encoding="UTF-8"?>
<svg width="32" height="32" viewBox="0 0 32 32" fill="none" xmlns="http://www.w3.org/2000/svg">
  <!-- Circle border -->
  <circle cx="16" cy="16" r="15" stroke="#D4AF37" stroke-width="2" fill="none"/>
  
  <!-- Caduceus staff -->
  <line x1="16" y1="8" x2="16" y2="24" stroke="#0B1F57" stroke-width="2"/>
  
  <!-- Wings/Leaves -->
  <path d="M12 12C14 14 14 16 16 16C18 16 18 14 20 12" stroke="#D4AF37" stroke-width="2" fill="none"/>
  <path d="M12 20C14 18 14 16 16 16C18 16 18 18 20 20" stroke="#D4AF37" stroke-width="2" fill="none"/>
  
  <!-- Snakes -->
  <path d="M13 10C11 12 11 14 13 16C15 18 15 20 13 22" stroke="#0B1F57" stroke-width="2" fill="none"/>
  <path d="M19 10C21 12 21 14 19 16C17 18 17 20 19 22" stroke="#0B1F57" stroke-width="2" fill="none"/>
</svg>